<?xml version="1.0" standalone="no"?>
<!DOCTYPE svg PUBLIC "-//W3C//DTD SVG 20010904//EN"
 "http://www.w3.org/TR/2001/REC-SVG-20010904/DTD/svg10.dtd">
<svg version="1.0" xmlns="http://www.w3.org/2000/svg"
 width="500.000000pt" height="500.000000pt" viewBox="0 0 500.000000 500.000000"
 preserveAspectRatio="xMidYMid meet">

<g transform="translate(0.000000,500.000000) scale(0.100000,-0.100000)"
fill="#000000" stroke="none">
<path d="M2275 4870 c-457 -42 -913 -225 -1275 -514 -111 -89 -320 -300 -396
-401 -300 -397 -448 -768 -499 -1245 -56 -523 79 -1078 372 -1524 137 -209
304 -393 500 -552 823 -664 1965 -724 2843 -149 549 360 925 916 1045 1545 23
121 45 339 45 445 0 223 -51 528 -125 752 -288 866 -1068 1510 -1980 1633
-108 14 -419 21 -530 10z m560 -78 c519 -81 972 -315 1340 -693 347 -357 543
-740 635 -1239 27 -143 37 -456 21 -613 -45 -443 -221 -868 -502 -1216 -134
-166 -251 -279 -418 -405 -313 -234 -664 -382 -1066 -448 -125 -20 -583 -17
-710 5 -396 70 -739 215 -1041 440 -350 260 -617 606 -774 1002 -46 115 -68
184 -100 320 -48 205 -55 273 -55 535 0 257 7 327 51 520 230 1003 1118 1757
2129 1808 147 8 386 0 490 -16z"/>
<path d="M2185 4764 c-256 -34 -454 -95 -700 -214 -621 -300 -1100 -906 -1244
-1571 -48 -226 -65 -522 -41 -748 38 -356 165 -705 368 -1010 98 -148 157
-219 306 -366 338 -334 747 -545 1236 -636 111 -21 154 -24 390 -23 207 0 287
4 365 17 393 69 720 209 1033 441 114 85 348 312 423 411 255 335 401 670 466
1067 12 75 17 168 17 343 1 266 -15 397 -75 613 -158 570 -557 1084 -1074
1382 -274 158 -550 253 -859 295 -136 19 -471 18 -611 -1z m135 -153 c0 -17
-5 -19 -35 -14 -26 4 -36 2 -41 -10 -8 -21 15 -199 28 -214 7 -9 7 -13 0 -13
-5 0 -24 -3 -42 -6 -30 -7 -31 -6 -19 14 10 16 10 33 1 85 -7 35 -12 78 -12
96 0 28 -3 31 -33 31 -18 0 -38 -5 -44 -11 -7 -7 -12 -4 -16 10 -4 15 0 21 11
21 10 1 55 7 102 14 47 8 88 14 93 15 4 1 7 -8 7 -18z m249 -94 c24 -61 51
-120 59 -129 14 -17 12 -18 -34 -18 -33 0 -44 3 -35 9 12 8 12 14 1 41 -12 30
-15 31 -64 28 -45 -3 -52 -6 -60 -31 -8 -22 -7 -30 4 -37 11 -7 3 -10 -27 -10
-41 0 -42 1 -27 19 15 17 28 44 95 199 10 23 24 42 31 42 7 0 32 -49 57 -113z
m223 91 c8 -7 37 -53 63 -103 26 -49 51 -94 55 -98 8 -9 23 75 24 138 1 39 2
41 29 37 22 -4 25 -7 16 -18 -7 -8 -20 -64 -30 -126 -10 -61 -21 -113 -23
-116 -9 -8 -30 15 -50 55 -11 21 -36 67 -55 102 -39 72 -41 71 -61 -39 -9 -49
-8 -65 2 -78 11 -14 10 -15 -12 -9 -14 4 -31 7 -38 7 -10 0 -9 5 2 23 7 12 21
64 31 114 14 75 15 96 5 108 -10 12 -9 15 7 15 10 0 26 -6 35 -12z m-767 -157
c42 -55 82 -102 88 -104 17 -6 7 -14 -32 -22 -22 -5 -31 -4 -27 3 3 6 -4 22
-16 35 -22 24 -24 24 -70 10 -45 -13 -48 -16 -48 -49 0 -20 5 -34 13 -34 18 0
-14 -20 -33 -20 -13 0 -13 17 4 140 13 96 23 140 32 140 7 0 47 -45 89 -99z
m1220 27 c7 -31 11 -268 5 -267 -3 0 -21 6 -40 14 -28 10 -32 14 -17 20 11 4
17 18 17 36 0 26 -6 32 -47 50 l-46 20 -24 -23 c-13 -12 -21 -28 -19 -35 4
-10 -2 -12 -22 -7 -33 8 -41 15 -25 21 13 5 83 75 148 151 42 47 62 53 70 20z
m-1551 -12 c-6 -17 71 -181 98 -208 17 -17 16 -18 -12 -33 -33 -17 -44 -19
-35 -6 6 11 -65 161 -77 161 -4 0 -8 -49 -8 -110 0 -60 -3 -110 -6 -110 -8 0
-83 60 -129 102 -28 26 -45 35 -45 24 0 -3 16 -39 36 -80 23 -48 43 -76 53
-76 11 -1 8 -5 -9 -15 -33 -19 -51 -19 -44 0 9 22 -86 215 -105 215 -9 1 -1 7
18 16 40 17 40 16 136 -65 32 -28 63 -51 67 -51 4 0 8 49 8 109 0 118 -3 111
57 140 1 1 0 -5 -3 -13z m1874 -125 c20 -10 45 -28 55 -39 16 -18 17 -24 6
-44 l-14 -23 -3 22 c-5 33 -58 73 -97 73 -65 0 -126 -83 -110 -148 9 -37 44
-72 71 -72 31 0 61 47 45 72 -15 24 -4 22 44 -7 22 -14 33 -25 23 -25 -9 0
-26 -16 -39 -36 -20 -34 -25 -36 -61 -31 -45 6 -105 48 -119 84 -23 61 2 142
55 174 40 24 97 24 144 0z m331 -245 c6 -7 4 -18 -5 -30 -14 -19 -14 -19 -14
1 0 12 -15 32 -36 48 l-37 28 -28 -34 c-16 -19 -29 -37 -29 -40 0 -11 61 -50
70 -44 18 11 10 -12 -10 -30 -17 -16 -20 -16 -20 -2 0 8 -14 25 -30 37 l-30
22 -20 -24 c-42 -48 -43 -55 -7 -82 19 -15 44 -26 57 -26 22 0 22 -1 5 -20
-17 -19 -18 -18 -87 37 -53 43 -66 58 -55 65 25 14 147 166 147 183 0 12 18 2
60 -31 33 -26 64 -52 69 -58z m-2785 10 c-3 -7 1 -20 8 -27 7 -8 32 -40 56
-71 64 -84 65 -84 107 -53 20 16 35 36 35 49 1 21 1 21 15 2 8 -11 15 -22 15
-25 -1 -3 -32 -30 -70 -59 -44 -33 -70 -48 -70 -39 0 15 -126 179 -143 186 -9
3 32 51 44 51 5 0 6 -6 3 -14z m1414 -89 c24 -36 29 -76 10 -95 -6 -6 -9 -15
-5 -18 3 -4 13 1 22 10 19 19 46 21 63 4 15 -15 15 -57 2 -78 -9 -13 -12 -13
-21 3 -16 26 -57 22 -71 -8 -17 -37 0 -76 40 -97 39 -19 83 -9 107 25 14 20
14 20 21 1 23 -65 100 -86 143 -40 40 42 7 107 -39 78 -17 -10 -20 -10 -20 6
0 25 36 62 61 62 11 0 23 -10 28 -22 9 -24 10 -24 26 27 5 15 73 50 81 42 3
-2 -12 -28 -31 -57 -38 -56 -85 -152 -85 -173 -1 -35 -15 -38 -101 -20 -146
30 -457 23 -590 -13 -12 -3 -21 8 -33 45 -16 50 -76 161 -104 194 -23 26 -7
31 35 11 24 -12 39 -27 41 -41 4 -26 17 -30 26 -8 14 36 86 -4 86 -48 0 -16
-3 -17 -15 -7 -8 7 -25 10 -40 6 -20 -5 -25 -13 -25 -35 0 -37 40 -71 83 -71
35 0 77 34 77 62 0 23 8 23 28 -3 10 -12 34 -23 59 -26 35 -5 45 -2 67 20 41
41 31 107 -15 107 -9 0 -22 -7 -29 -15 -10 -12 -16 -13 -26 -4 -19 15 -18 63
1 79 16 13 65 6 65 -10 0 -6 5 -10 10 -10 6 0 5 11 -3 28 -8 15 -12 34 -9 42
6 19 45 80 52 80 3 0 15 -15 28 -33z m1487 -175 c-25 -56 -45 -104 -45 -106 0
-5 25 1 130 30 l85 24 18 -22 c18 -21 18 -22 0 -29 -11 -4 -56 -42 -101 -86
l-83 -78 -19 20 c-20 22 -27 41 -12 31 5 -3 18 2 28 12 127 112 128 117 29 86
-77 -23 -125 -33 -129 -25 -3 4 13 49 35 101 21 52 39 96 39 98 0 5 -33 -20
-83 -62 -26 -22 -47 -46 -47 -54 0 -12 -4 -12 -20 3 -23 21 -26 35 -7 35 24 0
177 132 177 154 0 20 1 19 25 -5 l26 -25 -46 -102z m-3046 110 c-20 -6 -69
-54 -69 -67 0 -7 14 -24 30 -39 l31 -27 29 31 c17 18 27 36 24 41 -10 17 13 9
31 -11 15 -16 15 -20 3 -20 -8 0 -27 -13 -42 -29 l-27 -29 33 -31 c18 -17 36
-31 39 -31 15 0 70 73 65 86 -8 20 12 17 23 -4 8 -14 -2 -29 -51 -80 -33 -34
-62 -62 -64 -62 -2 0 -4 6 -4 13 0 13 -144 148 -168 158 -11 4 0 21 43 67 48
52 60 60 72 50 13 -10 13 -13 2 -16z m1358 -136 c-8 -20 -43 -21 -51 -1 -3 8
2 22 11 30 14 15 18 15 31 1 8 -8 12 -22 9 -30z m397 1 c-8 -21 -40 -22 -48
-2 -3 8 2 22 11 30 14 14 18 14 30 2 7 -7 11 -21 7 -30z m-1942 -62 c3 -3 -8
-20 -24 -37 l-29 -31 73 -53 c40 -29 84 -59 98 -66 14 -7 26 -13 28 -14 2 -1
-4 -13 -13 -27 l-16 -25 -22 22 c-31 31 -152 116 -165 116 -14 0 -37 -40 -34
-57 3 -16 -10 -17 -25 -2 -7 7 6 35 46 94 52 78 69 94 83 80z m1623 -105 c3
-5 -1 -10 -9 -10 -9 0 -16 5 -16 10 0 6 4 10 9 10 6 0 13 -4 16 -10z m125 0
c0 -5 -13 -10 -30 -10 -16 0 -30 5 -30 10 0 6 14 10 30 10 17 0 30 -4 30 -10z
m85 0 c3 -5 -1 -10 -10 -10 -9 0 -13 5 -10 10 3 6 8 10 10 10 2 0 7 -4 10 -10z
m-290 -15 c0 -5 -15 -11 -32 -13 -32 -3 -45 11 -20 22 19 8 52 2 52 -9z m393
9 c32 -9 27 -24 -7 -24 -30 0 -46 12 -34 24 8 7 12 7 41 0z m-513 -23 c3 -6
-3 -15 -14 -21 -24 -12 -42 7 -20 21 18 11 26 11 34 0z m635 -10 c0 -16 -13
-20 -32 -10 -10 5 -16 14 -13 19 6 9 45 1 45 -9z m-105 -26 c42 -8 79 -15 81
-15 2 0 4 -7 4 -15 0 -18 2 -18 -90 -1 -168 32 -382 28 -507 -9 -40 -12 -43
-12 -43 5 0 51 353 73 555 35z m1665 -131 c0 -1 -9 -4 -21 -7 -13 -3 -19 -1
-16 6 2 7 -2 26 -11 42 -27 55 -30 56 -72 29 l-39 -26 16 -34 c9 -19 23 -34
30 -34 21 0 15 -16 -12 -28 -22 -10 -25 -9 -25 9 0 11 -7 33 -15 50 l-16 30
-28 -21 c-16 -11 -34 -20 -39 -20 -23 0 -22 -21 4 -59 14 -22 36 -43 47 -47
21 -7 21 -7 -3 -16 -19 -7 -27 -5 -40 12 -27 36 -84 143 -72 136 12 -7 191 94
213 120 9 11 20 0 55 -63 24 -42 44 -77 44 -79z m-1990 67 c-19 -11 -53 -38
-75 -62 -37 -40 -40 -42 -43 -21 -2 12 5 37 15 55 19 32 47 43 113 45 23 1 22
-1 -10 -17z m180 12 c-8 -3 -38 -14 -66 -24 -27 -11 -59 -27 -70 -38 -11 -10
-38 -21 -59 -25 l-40 -8 24 26 c40 43 120 73 196 74 17 0 23 -2 15 -5z m-316
-35 c-4 -13 -7 -35 -6 -50 1 -37 -13 -43 -32 -16 -31 44 -17 72 42 87 2 1 0
-9 -4 -21z m446 13 c0 -5 -17 -12 -37 -16 -52 -9 -109 -38 -177 -90 -33 -24
-61 -43 -62 -42 -1 1 0 15 3 31 8 40 62 89 119 108 53 18 154 24 154 9z
m-2010 -56 c72 -37 100 -124 61 -189 -43 -74 -118 -90 -191 -42 -84 55 -76
172 15 228 36 22 76 23 115 3z m1498 -26 c22 -38 22 -40 3 -30 -26 15 -74 14
-89 -1 -6 -6 -14 -9 -17 -7 -7 8 55 79 68 79 7 0 22 -18 35 -41z m678 -1 c48
-44 87 -105 98 -151 6 -25 5 -27 -11 -18 -45 24 -113 103 -124 144 -6 23 -16
48 -21 55 -25 30 16 9 58 -30z m-96 12 c30 -30 26 -92 -10 -169 -28 -58 -32
-62 -44 -46 -11 16 -10 24 10 59 26 44 31 105 12 124 -19 19 -57 14 -115 -14
-60 -30 -66 -44 -8 -20 57 24 93 21 101 -8 6 -27 -11 -92 -27 -102 -6 -3 -29
12 -52 33 -23 22 -57 48 -75 58 -17 11 -32 22 -32 25 0 9 96 65 126 73 47 12
94 7 114 -13z m-374 -45 c3 -8 -1 -29 -10 -46 -20 -41 -21 -40 10 -29 38 15
41 13 36 -20 -5 -37 20 -112 54 -162 21 -30 25 -45 21 -73 -11 -67 -54 -141
-129 -221 -41 -44 -79 -87 -84 -95 -5 -8 -30 -23 -56 -33 -60 -22 -98 -52 -98
-77 0 -23 -22 -25 -40 -4 -16 19 -33 9 -25 -16 8 -23 -8 -25 -29 -4 -8 8 -17
15 -20 15 -3 0 -6 -7 -6 -15 0 -27 -19 -16 -39 23 -13 23 -20 30 -21 19 0 -11
-5 -15 -11 -11 -11 7 -7 103 5 122 3 5 43 -2 88 -15 84 -25 136 -25 164 -2 18
15 17 49 -1 73 -8 11 -12 30 -8 46 5 29 -11 70 -28 70 -6 0 -6 -7 1 -19 24
-47 -5 -132 -50 -146 -60 -19 -167 23 -193 76 -21 44 -17 57 28 87 19 12 35
26 35 31 0 5 -32 9 -72 10 -39 1 -74 4 -77 6 -2 3 42 49 99 103 81 78 103 104
104 127 1 23 14 37 79 83 77 53 199 109 245 111 12 1 25 -6 28 -14z m-220 -16
c3 -6 1 -15 -6 -19 -14 -8 -61 11 -54 22 8 12 52 9 60 -3z m352 -116 c7 -12
34 -49 61 -81 59 -70 78 -107 87 -161 8 -47 -5 -54 -30 -16 -9 14 -42 51 -73
83 -30 31 -66 80 -79 107 -26 55 -32 132 -12 168 11 20 12 18 23 -28 6 -27 17
-60 23 -72z m74 28 c27 -19 62 -52 78 -73 l31 -38 -73 40 c-68 36 -108 76
-108 108 0 16 9 11 72 -37z m395 -121 c69 -63 106 -129 123 -217 17 -83 9 -97
-20 -37 -15 30 -61 86 -117 142 -98 98 -132 143 -152 203 -21 65 -5 70 53 14
29 -27 80 -75 113 -105z m1463 100 c0 -8 -25 -57 -55 -109 -31 -52 -54 -96
-52 -98 3 -2 36 8 76 23 47 17 71 32 71 42 0 21 16 4 25 -27 5 -15 4 -21 -3
-17 -9 6 -166 -49 -214 -75 -43 -23 -29 21 53 163 22 36 39 69 39 72 0 10
-145 -55 -157 -71 -15 -20 -19 -17 -28 20 -6 21 -4 26 7 22 16 -6 186 60 207
81 16 15 31 3 31 -26z m-1593 -165 c62 -121 93 -257 93 -405 -1 -86 -19 -216
-32 -224 -49 -28 -161 -66 -265 -91 -132 -31 -147 -34 -152 -29 -3 2 56 64
131 137 116 112 141 142 169 202 31 66 33 76 33 180 0 120 -15 186 -59 261
-25 42 -25 45 -9 75 l16 32 25 -44 c14 -24 36 -66 50 -94z m-165 42 c52 -39
98 -137 105 -225 14 -173 -53 -287 -271 -457 -21 -16 -56 -52 -78 -80 -38 -47
-43 -50 -126 -70 -48 -12 -97 -27 -109 -33 -21 -12 -23 -11 -23 10 0 38 56
123 112 171 29 24 93 69 142 98 115 69 195 142 229 213 55 112 44 283 -25 371
-17 22 -36 46 -42 54 -13 17 31 -10 86 -52z m-2259 -10 c6 -16 192 -71 213
-63 8 3 14 0 14 -7 -1 -18 -28 -74 -29 -60 -1 15 -25 28 -68 38 -36 7 -44 -4
-58 -78 l-7 -35 51 -12 c27 -6 56 -8 62 -4 9 5 10 2 6 -10 -4 -10 -10 -29 -13
-42 -6 -23 -8 -24 -24 -9 -22 20 -187 68 -212 62 -21 -6 -22 1 -8 38 8 20 13
24 27 17 10 -5 33 -14 51 -20 37 -12 33 -15 56 60 l14 48 -37 10 c-20 5 -44
10 -55 10 -14 0 -17 5 -12 23 3 12 6 28 6 35 0 16 17 16 23 -1z m1073 -44
c-14 -101 -61 -176 -135 -216 -28 -16 -55 -25 -61 -22 -14 9 -1 92 23 143 19
43 75 95 132 125 45 24 48 21 41 -30z m2001 12 c82 -55 117 -112 127 -208 5
-48 5 -49 -19 -43 -78 20 -144 94 -170 192 -28 107 -20 114 62 59z m-916 -207
c11 -61 10 -72 -11 -137 -27 -86 -51 -108 -175 -171 -144 -72 -206 -141 -252
-280 -9 -26 -22 19 -22 77 -2 125 66 214 226 297 157 81 197 144 174 274 -7
37 -9 76 -5 87 7 16 12 11 30 -30 12 -28 28 -80 35 -117z m474 -22 c48 -94 48
-148 0 -243 -19 -38 -43 -77 -52 -86 -17 -15 -18 -9 -18 126 0 153 -11 215
-61 352 -17 47 99 -84 131 -149z m-409 27 c14 -49 14 -55 -4 -96 -11 -25 -24
-47 -28 -50 -5 -3 -9 36 -9 86 0 51 -4 108 -8 127 l-8 35 20 -25 c12 -14 28
-48 37 -77z m1914 34 c0 -12 9 -55 20 -95 24 -88 24 -92 3 -92 -14 0 -18 9
-19 35 0 19 -3 37 -5 40 -9 8 -203 -45 -210 -57 -11 -18 -19 -6 -25 38 -4 25
-2 34 4 26 7 -10 23 -9 83 6 41 11 86 23 102 26 20 5 27 12 27 30 0 14 -7 31
-15 40 -21 20 -19 26 10 26 19 0 25 -5 25 -23z m-3388 -85 c29 -57 33 -75 33
-141 -1 -44 -7 -90 -16 -110 l-14 -33 -29 28 c-52 53 -70 101 -71 189 0 44 6
100 13 123 13 42 14 43 32 27 11 -10 34 -47 52 -83z m1320 23 c-7 -61 -43
-100 -134 -146 -44 -22 -82 -38 -85 -36 -2 3 40 52 95 110 55 58 103 116 108
129 7 22 7 22 14 3 4 -11 5 -38 2 -60z m1346 9 c17 -63 10 -179 -12 -222 -9
-18 -31 -46 -49 -63 l-32 -31 -14 34 c-24 54 -19 184 7 238 27 55 63 101 77
97 6 -2 16 -26 23 -53z m-2356 -58 c-31 -69 -95 -132 -158 -156 -78 -29 -96
-27 -88 8 17 72 81 149 149 178 48 21 109 33 113 22 2 -4 -6 -27 -16 -52z
m403 33 c9 -17 14 -38 12 -47 -3 -12 -9 -6 -20 20 -27 60 -20 82 8 27z m1655
-6 c56 -25 112 -84 134 -141 21 -54 20 -62 -4 -62 -46 0 -129 42 -170 86 -38
42 -79 114 -80 140 0 15 62 3 120 -23z m-2262 -20 c4 -28 -32 -50 -54 -32 -15
12 -19 41 -7 53 16 15 58 1 61 -21z m2430 0 c4 -29 -28 -47 -53 -29 -12 9 -15
19 -10 35 9 30 59 26 63 -6z m-3009 -129 c-18 -87 -15 -417 4 -526 51 -274
126 -465 273 -688 238 -363 646 -650 1064 -748 25 -6 56 -13 70 -17 59 -13
272 -35 350 -35 78 0 291 22 350 35 14 4 45 11 70 17 93 22 255 80 349 124 98
47 280 164 361 231 58 48 194 184 248 248 119 141 251 380 313 567 31 94 36
117 65 268 21 108 23 415 5 513 -13 66 -9 96 9 67 27 -43 34 -423 11 -570 -47
-300 -166 -575 -353 -820 -68 -88 -245 -262 -343 -335 -646 -488 -1522 -488
-2170 -1 -97 73 -274 247 -343 336 -279 364 -409 817 -363 1264 14 132 19 152
33 138 6 -6 5 -31 -3 -68z m2964 -129 c51 -51 77 -113 77 -185 0 -47 -3 -60
-15 -60 -23 0 -104 78 -126 121 -20 41 -44 172 -34 189 8 12 47 -14 98 -65z
m-2307 8 c-10 -92 -36 -152 -88 -204 -25 -25 -56 -49 -67 -52 -20 -5 -21 -1
-21 59 0 95 35 161 120 227 55 42 64 37 56 -30z m-291 -65 c44 -44 66 -75 74
-103 14 -51 14 -145 1 -145 -23 0 -90 54 -115 92 -25 37 -54 143 -55 196 0 37
27 26 95 -40z m2885 29 c0 -52 -29 -149 -56 -189 -31 -44 -98 -93 -115 -83
-16 11 -6 131 15 172 20 37 121 133 142 133 9 0 14 -11 14 -33z m-2770 -2 c6
-8 9 -23 5 -35 -10 -31 -59 -24 -63 9 -6 37 34 55 58 26z m2608 6 c21 -13 11
-55 -15 -59 -30 -4 -49 31 -27 52 18 18 24 19 42 7z m-433 -83 c-39 -40 -80
-82 -93 -95 -13 -13 -35 -23 -49 -23 -25 0 -25 -1 -9 -13 17 -12 15 -17 -32
-65 -35 -36 -59 -52 -76 -52 -14 0 -26 -4 -26 -10 0 -5 7 -10 15 -10 22 0 19
-8 -20 -56 -25 -31 -51 -49 -86 -61 -48 -17 -49 -18 -22 -24 l28 -5 -39 -17
c-53 -23 -86 -31 -86 -21 0 11 97 142 137 187 74 82 217 209 283 253 52 35 51
40 -2 13 -139 -71 -305 -211 -416 -352 -25 -31 -47 -55 -50 -53 -2 3 -1 23 3
46 5 32 10 39 20 30 10 -8 14 -3 19 25 8 43 115 164 127 143 9 -14 11 -13 27
24 6 15 33 43 59 62 42 30 49 33 54 18 6 -14 9 -13 19 10 18 38 185 109 275
117 5 1 -22 -31 -60 -71z m-276 -165 c-103 -99 -167 -175 -258 -311 -34 -52
-65 -91 -68 -89 -19 19 150 254 256 355 56 54 149 131 159 132 2 0 -38 -39
-89 -87z m-1748 10 c23 -61 31 -134 19 -184 -14 -57 -65 -142 -83 -136 -19 6
-46 88 -46 142 -1 54 24 118 65 172 14 18 27 33 30 33 2 0 9 -12 15 -27z
m2339 -66 c23 -46 30 -74 30 -116 0 -62 -32 -145 -52 -139 -7 3 -26 26 -43 53
-28 45 -30 55 -30 144 1 53 6 109 13 125 12 28 13 28 32 11 11 -10 33 -45 50
-78z m-2543 -40 c38 -41 73 -123 73 -171 0 -46 -126 22 -174 94 -25 37 -56
128 -56 162 0 16 6 15 58 -11 32 -16 76 -49 99 -74z m2823 76 c0 -28 -29 -114
-46 -141 -28 -42 -68 -79 -111 -101 -76 -38 -85 -29 -57 65 18 64 82 139 145
171 53 27 69 29 69 6z m-2723 -9 c8 -22 -10 -49 -32 -49 -10 0 -22 7 -28 16
-15 24 -1 49 28 49 15 0 28 -7 32 -16z m2530 0 c8 -22 -10 -49 -32 -49 -10 0
-22 7 -28 16 -15 24 -1 49 28 49 15 0 28 -7 32 -16z m-3299 -60 c30 -21 29
-59 -3 -80 -23 -15 -27 -15 -50 0 -32 21 -33 59 -3 80 12 9 25 16 28 16 3 0
16 -7 28 -16z m4060 0 c30 -21 29 -59 -3 -80 -23 -15 -27 -15 -50 0 -32 21
-33 59 -3 80 12 9 25 16 28 16 3 0 16 -7 28 -16z m-2521 -25 c15 -6 96 -15
178 -19 154 -8 184 -15 243 -58 l32 -24 0 -259 c0 -143 -2 -259 -4 -259 -2 0
-19 14 -37 32 -64 60 -106 70 -299 78 -191 8 -257 23 -246 57 6 20 86 442 86
455 0 11 13 10 47 -3z m807 -46 c-4 -16 -9 -31 -13 -35 -3 -3 -46 -8 -96 -10
-97 -3 -167 -29 -174 -63 -3 -17 -1 -16 25 2 42 28 102 43 176 43 59 0 66 -2
71 -22 3 -12 4 -25 1 -30 -3 -4 -39 -8 -79 -8 -101 0 -194 -35 -195 -73 0 -5
17 1 38 12 57 30 100 41 158 41 58 0 62 -4 38 -38 -11 -16 -25 -22 -53 -22
-45 0 -122 -22 -157 -45 -42 -27 -17 -34 34 -8 26 13 72 26 101 30 l53 6 -16
-31 c-12 -24 -24 -32 -58 -37 -64 -11 -142 -54 -126 -70 2 -3 26 7 53 20 43
22 95 33 95 20 0 -25 -29 -54 -68 -69 -52 -19 -89 -43 -80 -52 3 -3 26 5 50
17 35 18 67 24 173 29 146 8 215 23 215 46 0 12 -4 13 -22 3 -13 -7 -72 -14
-133 -16 l-110 -4 35 31 c28 25 43 30 85 30 57 0 121 16 131 32 5 7 -2 9 -22
4 -16 -3 -57 -9 -91 -13 -57 -5 -63 -4 -63 13 0 32 13 41 65 46 54 6 111 25
102 34 -3 3 -31 0 -61 -7 -31 -7 -59 -9 -63 -5 -14 14 15 41 53 49 21 5 57 17
78 28 22 10 41 18 43 16 2 -3 63 -302 63 -314 0 -1 -15 -10 -32 -19 -26 -14
-73 -19 -213 -24 -197 -8 -239 -19 -304 -81 -17 -16 -33 -29 -36 -29 -3 0 -5
114 -5 253 l0 253 28 26 c56 52 100 66 225 67 l87 1 -6 -27z m-888 0 c-3 -10
-24 -112 -47 -227 -47 -239 -50 -223 47 -251 35 -10 96 -15 189 -15 150 0 199
-9 261 -51 71 -48 73 -57 10 -54 -30 2 -72 8 -93 14 -21 6 -87 20 -148 31
-281 52 -335 64 -335 77 0 18 57 312 75 383 7 30 16 67 19 83 4 15 11 27 17
27 6 0 8 -8 5 -17z m-51 -35 c-30 -134 -95 -448 -95 -460 0 -11 30 -20 123
-38 67 -12 189 -36 272 -51 82 -16 157 -29 167 -29 9 0 38 -11 65 -25 52 -28
84 -27 138 5 17 9 64 23 105 29 72 12 140 24 393 72 106 20 117 24 117 43 0
11 -18 107 -41 211 -55 259 -54 255 -37 255 9 0 19 -26 31 -82 10 -46 27 -123
38 -173 44 -204 50 -238 46 -249 -3 -7 -34 -18 -69 -23 -531 -91 -551 -95
-580 -116 -41 -30 -115 -30 -156 0 -22 16 -73 29 -208 52 -281 48 -433 77
-440 84 -4 4 -2 26 4 49 7 24 30 129 52 233 54 248 50 235 66 235 10 0 13 -7
9 -22z m1184 -65 c5 -21 24 -110 41 -198 17 -88 33 -167 36 -176 3 -12 -10
-18 -63 -28 -38 -7 -88 -16 -113 -21 -25 -5 -97 -18 -160 -30 -63 -11 -137
-25 -165 -31 -102 -21 -103 -21 -80 -7 19 11 134 39 244 58 68 12 77 20 20 20
-93 -1 -184 -21 -254 -56 -54 -28 -65 -31 -50 -14 60 66 143 90 316 90 136 0
212 13 253 43 19 14 19 18 -13 178 -17 90 -34 174 -36 187 -9 38 14 24 24 -15z
m-1922 -52 c63 -31 128 -111 149 -180 13 -46 22 -61 38 -63 15 -2 21 -10 21
-28 0 -20 -6 -26 -27 -28 -25 -3 -28 0 -28 27 0 21 -5 31 -15 31 -32 0 -122
50 -156 86 -47 51 -99 150 -99 190 0 15 46 2 117 -35z m2759 -40 c-15 -39 -43
-84 -67 -109 -39 -43 -126 -92 -161 -92 -13 0 -18 -8 -18 -31 l0 -30 70 7 c39
3 70 5 70 2 0 -11 -78 -108 -105 -130 -55 -46 -117 -71 -189 -76 l-68 -5 7 24
c19 60 89 127 161 155 43 16 46 19 24 24 -33 8 -36 53 -4 58 16 2 25 17 38 63
20 65 85 147 140 176 53 28 121 50 125 40 2 -5 -8 -39 -23 -76z m-2453 -10
c33 -65 37 -80 37 -146 0 -70 -22 -155 -39 -155 -4 0 -21 19 -38 43 -53 76
-68 137 -54 223 12 76 28 117 44 112 6 -3 29 -37 50 -77z m2134 33 c20 -54 21
-171 4 -214 -8 -19 -28 -54 -45 -78 -30 -43 -31 -44 -48 -22 -44 54 -43 182 3
272 51 100 64 106 86 42z m-2263 -17 c36 -26 -4 -84 -41 -61 -24 15 -27 38 -8
58 20 19 26 20 49 3z m2361 -3 c19 -20 16 -43 -7 -58 -38 -23 -78 35 -42 61
23 17 29 16 49 -3z m-905 -89 c0 -14 -59 -69 -67 -61 -6 5 14 45 35 68 16 19
32 15 32 -7z m-1165 -156 c56 -63 89 -141 89 -217 0 -83 -10 -91 -65 -50 -77
58 -124 190 -105 292 6 31 10 35 25 27 10 -6 35 -29 56 -52z m1813 -47 c-5
-107 -55 -198 -130 -238 -31 -16 -33 -13 -42 41 -13 81 45 211 122 275 31 26
38 28 45 14 5 -9 7 -50 5 -92z m-2087 8 c63 -23 112 -61 150 -113 45 -63 41
-71 -38 -65 -110 8 -191 59 -265 165 l-31 46 67 -7 c37 -4 90 -15 117 -26z
m478 -147 c62 -36 116 -87 137 -131 21 -45 45 -140 36 -146 -4 -2 -31 5 -59
16 -92 34 -159 122 -188 243 -12 55 -12 55 9 49 11 -3 41 -17 65 -31z m1407
20 c-3 -10 -8 -31 -12 -48 -26 -113 -97 -199 -194 -236 l-53 -20 7 50 c4 27
13 66 22 86 21 51 98 125 164 158 65 32 73 33 66 10z m-1602 -123 c52 -25 116
-77 116 -95 0 -7 -15 -18 -32 -24 -85 -26 -177 -12 -256 38 -66 43 -102 72
-102 82 0 14 105 28 168 23 35 -3 83 -14 106 -24z m1916 19 c35 -5 67 -12 69
-15 3 -3 -8 -16 -23 -29 -99 -85 -210 -121 -302 -100 -72 16 -79 23 -57 47 34
38 101 78 155 92 66 18 77 18 158 5z m-1427 -27 c93 -43 151 -107 175 -196
l11 -39 -38 6 c-90 12 -168 72 -211 161 -50 105 -41 115 63 68z m827 12 c0 -9
-14 -45 -30 -80 -42 -87 -118 -147 -206 -161 -29 -5 -34 -3 -34 14 0 69 85
172 175 214 69 32 95 36 95 13z m-1010 -184 c58 -30 73 -45 57 -58 -42 -34
-86 -46 -162 -46 -69 -1 -89 4 -147 31 -38 18 -68 34 -68 37 0 10 58 36 112
51 69 19 153 13 208 -15z m165 -2 c9 -26 -13 -50 -44 -46 -19 2 -27 10 -29 27
-7 47 59 64 73 19z m1198 -2 c31 -14 57 -28 57 -31 0 -3 -30 -20 -67 -38 -59
-28 -79 -32 -148 -32 -63 0 -89 5 -122 23 -23 12 -44 25 -47 30 -6 10 53 50
101 68 54 20 156 11 226 -20z m-355 -8 c3 -22 -2 -29 -23 -34 -34 -8 -60 15
-50 45 5 18 13 22 38 19 26 -2 33 -8 35 -30z m-705 -64 c26 -9 47 -21 46 -27
-1 -21 -70 -70 -123 -89 -60 -20 -100 -22 -182 -7 -90 16 -91 25 -16 78 83 58
186 75 275 45z m717 -16 c30 -15 71 -40 90 -57 l35 -29 -45 -13 c-74 -21 -197
-17 -250 7 -43 20 -100 68 -100 85 0 4 19 14 43 23 64 23 160 17 227 -16z
m-538 -14 c17 -10 7 -26 -13 -21 -15 4 -22 -1 -29 -19 -15 -38 -70 -26 -70 16
0 29 23 42 64 35 22 -3 43 -8 48 -11z m236 4 c28 -28 1 -75 -38 -63 -11 3 -20
12 -20 20 0 7 -10 15 -22 17 -32 5 -33 26 -1 31 54 8 69 7 81 -5z m-138 -23
c7 -8 10 -25 6 -40 -5 -20 -13 -25 -36 -25 -23 0 -31 5 -36 25 -7 29 10 55 36
55 10 0 23 -7 30 -15z m-92 -63 c2 -6 -15 -20 -36 -31 -22 -11 -51 -35 -65
-53 -24 -29 -28 -31 -52 -20 l-27 13 37 32 c42 36 115 77 129 73 6 -1 11 -7
14 -14z m175 2 c44 -23 127 -84 127 -94 0 -4 -12 -11 -27 -15 -22 -5 -31 -1
-51 25 -13 17 -41 40 -63 50 -38 20 -46 30 -32 43 9 9 10 9 46 -9z m-1144
-284 l36 -1 -28 -24 c-24 -22 -27 -30 -22 -57 l7 -32 -26 17 c-24 16 -28 16
-57 2 l-30 -16 6 35 c6 30 3 37 -21 53 l-28 18 39 5 c35 4 40 9 49 40 l10 35
14 -38 c13 -33 18 -37 51 -37z m2181 0 c35 0 38 -10 9 -28 -17 -11 -20 -20
-16 -48 7 -39 5 -40 -28 -18 -23 15 -26 14 -55 -6 -34 -24 -34 -24 -19 18 10
29 8 34 -18 56 l-28 25 37 1 c31 0 38 4 48 33 l12 32 14 -32 c11 -27 20 -33
44 -33z m-1770 -153 c47 -15 54 -22 41 -44 -9 -16 -10 -16 -11 -1 0 11 -12 21
-32 26 -29 8 -35 6 -46 -15 -18 -33 -10 -50 27 -58 19 -4 28 -11 25 -20 -4
-11 -11 -10 -35 3 -32 19 -42 12 -55 -36 -8 -30 -3 -34 45 -35 43 -2 46 -4 33
-24 -6 -10 -22 -8 -67 9 -73 25 -69 22 -56 45 21 34 60 156 54 166 -5 9 6 7
77 -16z m1330 0 c0 -8 -18 -19 -39 -26 -32 -9 -38 -15 -34 -32 5 -17 11 -20
35 -15 79 16 117 -77 48 -117 -31 -19 -80 -23 -80 -7 0 6 11 10 25 10 24 0 65
31 65 48 0 5 -6 16 -14 27 -10 14 -21 17 -49 12 -32 -5 -38 -3 -42 16 -14 60
-11 69 25 83 46 17 60 17 60 1z m-1129 -57 c10 -6 19 -20 19 -32 l0 -22 -21
23 c-24 25 -62 25 -67 -1 -2 -9 13 -32 32 -52 39 -39 45 -69 19 -98 -28 -32
-123 -15 -123 22 0 28 12 31 24 7 19 -37 85 -33 86 5 0 4 -16 22 -35 39 -71
65 -18 153 66 109z m951 -14 c15 -22 7 -70 -18 -114 l-26 -44 33 7 c19 4 40
12 47 17 9 8 12 5 12 -9 0 -16 -11 -23 -47 -33 -27 -7 -56 -14 -65 -17 -23 -6
-23 -5 13 65 38 76 37 116 -4 120 -22 3 -30 -1 -34 -17 -7 -27 -23 -27 -23 -1
0 39 90 60 112 26z m-769 -22 c33 -4 57 -12 57 -18 0 -8 -13 -11 -34 -8 l-33
4 -12 -76 c-6 -41 -8 -82 -5 -91 4 -9 1 -15 -7 -14 -18 1 -57 17 -44 18 6 1
16 38 23 83 13 89 8 102 -35 95 -15 -3 -20 0 -16 10 4 9 14 12 27 9 12 -3 48
-8 79 -12z m572 0 c22 -9 45 -69 45 -119 0 -35 -5 -48 -26 -64 -34 -27 -47
-26 -80 2 -23 20 -28 34 -32 84 -4 52 -1 64 17 82 21 21 46 26 76 15z m-171
-30 c24 -23 20 -47 -20 -104 -19 -28 -34 -53 -32 -55 2 -2 20 0 41 4 33 8 37
7 37 -10 0 -17 -8 -19 -66 -19 -72 0 -71 -3 -18 67 40 52 49 80 34 98 -16 20
-39 19 -62 -2 -16 -15 -18 -15 -18 0 0 35 75 50 104 21z m-269 -165 c0 -7 -8
-15 -17 -17 -18 -3 -25 18 -11 32 10 10 28 1 28 -15z"/>
<path d="M2476 4520 c-9 -22 -16 -43 -16 -45 0 -3 18 -5 40 -5 22 0 40 2 40 5
0 14 -33 85 -40 85 -4 0 -15 -18 -24 -40z"/>
<path d="M1936 4459 c-12 -64 -9 -71 27 -64 17 4 34 9 36 11 4 3 -48 84 -54
84 -1 0 -5 -14 -9 -31z"/>
<path d="M3161 4406 l-34 -36 34 -14 c19 -8 37 -11 41 -7 4 3 4 26 0 49 l-7
43 -34 -35z"/>
<path d="M595 3418 c-52 -28 -61 -86 -19 -131 48 -52 115 -62 159 -24 53 45
26 119 -54 153 -40 17 -59 17 -86 2z"/>
<path d="M2174 3266 c-27 -23 -28 -24 -11 -49 22 -34 22 -60 -2 -81 -20 -19
-34 -56 -21 -56 5 0 22 11 38 25 17 14 42 25 56 25 15 0 38 11 52 25 14 14 33
25 42 26 32 1 -51 30 -92 32 -45 2 -58 23 -31 50 34 34 8 37 -31 3z m83 -84
c18 15 29 2 13 -17 -19 -23 -50 -19 -50 7 0 17 3 19 12 10 8 -8 15 -9 25 0z"/>
<path d="M2328 3004 c-42 -27 -45 -35 -23 -54 12 -10 15 -10 15 3 0 9 12 29
26 46 31 37 30 37 -18 5z"/>
<path d="M2040 2113 c0 -19 78 -33 177 -33 103 0 170 -15 204 -46 10 -9 19
-11 23 -5 6 9 -31 40 -69 56 -11 5 -78 12 -150 16 -71 4 -142 10 -157 14 -16
4 -28 3 -28 -2z"/>
<path d="M2025 2039 c-12 -19 54 -33 180 -39 114 -4 137 -8 183 -31 39 -19 52
-22 52 -12 0 8 -25 25 -55 39 -48 21 -71 24 -164 24 -69 0 -123 5 -149 14 -25
9 -44 11 -47 5z"/>
<path d="M2014 1959 c-11 -18 55 -32 182 -39 113 -5 138 -9 183 -32 54 -26 80
-21 36 8 -49 32 -100 43 -201 44 -56 0 -121 6 -147 14 -27 8 -49 10 -53 5z"/>
<path d="M2005 1880 c-12 -19 51 -33 186 -40 118 -7 143 -11 188 -33 34 -18
51 -22 51 -14 0 7 -21 24 -47 36 -40 20 -70 25 -188 31 -77 3 -150 12 -162 18
-14 8 -24 9 -28 2z"/>
<path d="M2000 1792 c0 -20 72 -34 203 -41 117 -6 138 -10 180 -33 45 -26 65
-20 30 9 -44 34 -92 45 -228 53 -77 5 -150 12 -162 15 -14 5 -23 3 -23 -3z"/>
<path d="M2112 1625 c3 -3 27 -10 54 -14 93 -16 209 -42 237 -53 45 -18 42 -1
-4 22 -23 12 -77 28 -118 36 -76 13 -179 19 -169 9z"/>
<path d="M2775 489 c-9 -28 4 -113 20 -136 11 -14 17 -16 32 -7 14 9 18 23 16
67 -1 31 -7 65 -13 77 -14 26 -47 26 -55 -1z"/>
</g>
</svg>
